<svg id="kity_svg_6" xmlns="http://www.w3.org/2000/svg" xmlns:xlink="http://www.w3.org/1999/xlink" version="1.1" width="2704" height="1109" style="background: black; visibility: visible;" viewBox="0 0 2704 1109"><defs id="kity_defs_7"><linearGradient id="kity_linearGradient_17" x1="0" y1="0" x2="0" y2="1"><stop id="kity_stop_18" offset="0" stop-color="rgb(255, 255, 255)"></stop><stop id="kity_stop_19" offset="1" stop-color="rgb(204, 204, 204)"></stop></linearGradient><marker id="kity_marker_2" orient="auto" refX="6" refY="0" viewBox="-7 -7 14 14" markerWidth="7" markerHeight="7" markerUnits="userSpaceOnUse"><path id="kity_path_3" fill="#999" stroke="none" d="M6,0A6,6,0,1,1,-6,0A6,6,0,1,1,6,0"></path></marker></defs><g id="kity_g_8"><g id="minder1" text-rendering="geometricPrecision"><g id="minder_connect_group1"><path id="kity_path_32" fill="none" stroke="#999" stroke-width="1" d="M1505,780.5A101.5,453,0,0,1,1606.5,327.5"></path><path id="kity_path_40" fill="none" stroke="#999" stroke-width="1" d="M1675.5,327.5C1690.5,327.5,1690.5,227.5,1705.5,227.5L1819.5,227.5"></path><path id="kity_path_48" fill="none" stroke="#999" stroke-width="1" d="M1819.5,227.5C1836.5,227.5,1836.5,117.5,1853.5,117.5L1975.5,117.5"></path><path id="kity_path_63" fill="none" stroke="#999" stroke-width="1" d="M1975.5,117.5C1998.5,117.5,1998.5,57.5,2021.5,57.5L2209.5,57.5"></path><path id="kity_path_65" fill="none" stroke="#999" stroke-width="1" d="M1819.5,227.5C1834.5,227.5,1834.5,283.5,1849.5,283.5L1988.5,283.5"></path><path id="kity_path_73" fill="none" stroke="#999" stroke-width="1" d="M1988.5,283.5C2005,283.5,2005,302.5,2021.5,302.5L2139.5,302.5"></path><path id="kity_path_88" fill="none" stroke="#999" stroke-width="1" d="M2139.5,302.5C2172,302.5,2172,377.5,2204.5,377.5L2299.5,377.5"></path><path id="kity_path_90" fill="none" stroke="#999" stroke-width="1" d="M1988.5,283.5C2012.5,283.5,2012.5,207.5,2036.5,207.5L2280.5,207.5"></path><path id="kity_path_98" fill="none" stroke="#999" stroke-width="1" d="M1505,780.5A131.5,168,0,0,1,1636.5,612.5"></path><path id="kity_path_132" fill="none" stroke="#999" stroke-width="1" d="M1505,780.5A327.5,171,0,0,0,1832.5,951.5"></path><path id="kity_path_148" fill="none" stroke="#999" stroke-width="1" d="M1505,780.5A275.5,122,0,0,0,1229.5,658.5"></path><path id="kity_path_156" fill="none" stroke="#999" stroke-width="1" d="M1675.5,327.5C1758,327.5,1758,406.5,1840.5,406.5L2038.5,406.5"></path><path id="kity_path_195" fill="none" stroke="#999" stroke-width="1" d="M1505,780.5A131.5,104,0,0,0,1373.5,676.5"></path><path id="kity_path_206" fill="none" stroke="#999" stroke-width="1" d="M1792.5,612.5C1883,612.5,1883,554.5,1973.5,554.5L2239.5,554.5"></path><path id="kity_path_207" fill="none" stroke="#999" stroke-width="1" d="M1792.5,612.5C1905.5,612.5,1905.5,689.5,2018.5,689.5L2253.5,689.5"></path><path id="kity_path_208" fill="none" stroke="#999" stroke-width="1" d="M1792.5,612.5C1859,612.5,1859,819.5,1925.5,819.5L2250.5,819.5"></path><path id="kity_path_209" fill="none" stroke="#999" stroke-width="1" d="M1986.5,951.5C2001.5,951.5,2001.5,897.5,2016.5,897.5L2351.5,897.5"></path><path id="kity_path_210" fill="none" stroke="#999" stroke-width="1" d="M1986.5,951.5C2001.5,951.5,2001.5,971.5,2016.5,971.5L2118.5,971.5"></path><path id="kity_path_212" fill="none" stroke="#999" stroke-width="1" d="M1265.5,676.5C1237,676.5,1237,720.5,1208.5,720.5L1089.5,720.5"></path><path id="kity_path_220" fill="none" stroke="#999" stroke-width="1" d="M1089.5,720.5C1053.5,720.5,1053.5,746.5,1017.5,746.5L881.5,746.5"></path><path id="kity_path_228" fill="none" stroke="#999" stroke-width="1" d="M1505,780.5A39.5,79,0,0,1,1465.5,859.5"></path><path id="kity_path_236" fill="none" stroke="#999" stroke-width="1" d="M1310.5,859.5C1295,859.5,1295,936.5,1279.5,936.5L1051.5,936.5"></path><path id="kity_path_252" fill="none" stroke="#999" stroke-width="1" d="M1463.5,859.5C1527.5,859.5,1527.5,1084.5,1591.5,1084.5L1962.5,1084.5"></path><path id="kity_path_267" fill="none" stroke="#999" stroke-width="1" d="M634.5,1007.5C606,1007.5,606,1089.5,577.5,1089.5L20.5,1089.5"></path><path id="kity_path_268" fill="none" stroke="#999" stroke-width="1" d="M1051.5,936.5C1026.5,936.5,1026.5,1007.5,1001.5,1007.5L634.5,1007.5"></path><path id="kity_path_270" fill="none" stroke="#999" stroke-width="1" d="M1265.5,676.5C1217.5,676.5,1217.5,844.5,1169.5,844.5L622.5,844.5"></path><path id="kity_path_278" fill="none" stroke="#999" stroke-width="1" d="M1675.5,327.5C1737.5,327.5,1737.5,485.5,1799.5,485.5L1986.5,485.5"></path><path id="kity_path_286" fill="none" stroke="#999" stroke-width="1" d="M2253.5,689.5C2281,689.5,2281,551.5,2308.5,551.5L2684.5,551.5"></path><path id="kity_path_294" fill="none" stroke="#999" stroke-width="1" d="M2253.5,689.5C2268.5,689.5,2268.5,726.5,2283.5,726.5L2633.5,726.5"></path><path id="kity_path_302" fill="none" stroke="#999" stroke-width="1" d="M1505,780.5A222.5,330,0,0,0,1282.5,450.5"></path><path id="kity_path_310" fill="none" stroke="#999" stroke-width="1" d="M964.5,658.5C928,658.5,928,655.5,891.5,655.5L638.5,655.5"></path><path id="kity_path_314" fill="none" stroke="#999" stroke-width="1" d="M934.5,450.5C919.5,450.5,919.5,470.5,904.5,470.5L752.5,470.5"></path><path id="kity_path_330" fill="none" stroke="#999" stroke-width="1" d="M1986.5,951.5C2001.5,951.5,2001.5,1045.5,2016.5,1045.5L2255.5,1045.5"></path><path id="kity_path_338" fill="none" stroke="#999" stroke-width="1" d="M1505,780.5A84.5,251,0,0,1,1420.5,1031.5"></path><path id="kity_path_345" fill="none" stroke="#999" stroke-width="1" d="M638.5,655.5C621,655.5,621,634.5,603.5,634.5L280.5,634.5"></path><path id="kity_path_346" fill="none" stroke="#999" stroke-width="1" d="M638.5,655.5C567.5,655.5,567.5,465.5,496.5,465.5L320.5,465.5"></path><path id="kity_path_348" fill="none" stroke="#999" stroke-width="1" d="M638.5,655.5C581.5,655.5,581.5,760.5,524.5,760.5L405.5,760.5"></path></g><g id="minder_node1"><path id="kity_path_30" fill="rgba(0, 0, 0, .25)" stroke="none" d="M1485.5,758.5h123a27,27,0,0,1,27,27v0a27,27,0,0,1,-27,27h-123a27,27,0,0,1,-27,-27v0a27,27,0,0,1,27,-27z" display="none"></path><path id="node_outline1" fill="black" stroke="none" d="M1469.5,763.5h71v34h-71z" stroke-width="3"></path><g id="node_text1" fill="#999"><text id="kity_text_22" text-rendering="inherit" font-size="14" dy=".8em" y="773.5" x="1479.5">NFT ART</text></g></g><g id="kity_g_14" display="none"><path id="kity_path_15" fill="rgba(0, 255, 0, .5)" stroke="none" d="M274.5,648.5h313v20h-313z"></path><path id="kity_path_16" fill="none" stroke="#0f0" d="M274.5,668.5L587.5,668.5" stroke-width="1"></path></g><g id="minder_node2" opacity="1"><g id="node_expander1" style="cursor: pointer;"><path id="kity_path_37" fill="white" stroke="gray" d="M1608.5,327.5A6,6,0,1,1,1596.5,327.5A6,6,0,1,1,1608.5,327.5"></path><path id="kity_path_38" fill="none" stroke="gray" d="M1598,327.5L1607,327.5"></path></g><path id="node_outline2" fill="black" stroke="none" d="M1608.5,310.5h67v34h-67z"></path><g id="node_text2" fill="#999"><text id="kity_text_34" text-rendering="inherit" font-size="14" dy=".8em" y="320.5" x="1618.5">Crypto</text></g></g><g id="minder_node3"><g id="node_expander2" style="cursor: pointer;"><path id="kity_path_45" fill="white" stroke="gray" d="M1715.5,207.5A6,6,0,1,1,1703.5,207.5A6,6,0,1,1,1715.5,207.5"></path><path id="kity_path_46" fill="none" stroke="gray" d="M1705,207.5L1714,207.5"></path></g><path id="node_outline3" fill="black" stroke="none" d="M1715.5,190.5h104v34h-104z"></path><g id="node_text3" fill="#999"><text id="kity_text_42" text-rendering="inherit" font-size="14" dy=".8em" y="200.5" x="1725.5">Environment</text></g></g><g id="minder_node4" opacity="1"><g id="node_expander3" style="cursor: pointer;"><path id="kity_path_53" fill="white" stroke="gray" d="M1863.5,97.5A6,6,0,1,1,1851.5,97.5A6,6,0,1,1,1863.5,97.5"></path><path id="kity_path_54" fill="none" stroke="gray" d="M1853,97.5L1862,97.5"></path></g><path id="node_outline4" fill="black" stroke="none" d="M1863.5,80.5h112v34h-112z"></path><g id="node_text4" fill="#999"><text id="kity_text_50" text-rendering="inherit" font-size="14" dy=".8em" y="90.5" x="1873.5">Proof of stake</text></g></g><g id="minder_node5" opacity="1"><g id="node_expander4" style="cursor: pointer;" display="none"><path id="kity_path_61" fill="white" stroke="gray" d="M2031.5,37.5A6,6,0,1,1,2019.5,37.5A6,6,0,1,1,2031.5,37.5"></path><path id="kity_path_62" fill="none" stroke="gray"></path></g><path id="node_outline5" fill="black" stroke="none" d="M2031.5,20.5h178v34h-178z"></path><g id="node_text5" fill="#999"><text id="kity_text_58" text-rendering="inherit" font-size="14" dy=".8em" y="30.5" x="2041.5">Environmental "friendly"</text></g></g><g id="minder_node6"><g id="node_expander5" style="cursor: pointer;"><path id="kity_path_70" fill="white" stroke="gray" d="M1859.5,263.5A6,6,0,1,1,1847.5,263.5A6,6,0,1,1,1859.5,263.5"></path><path id="kity_path_71" fill="none" stroke="gray" d="M1849,263.5L1858,263.5"></path></g><path id="node_outline6" fill="black" stroke="none" d="M1859.5,246.5h129v34h-129z"></path><g id="node_text6" fill="#999"><text id="kity_text_67" text-rendering="inherit" font-size="14" dy=".8em" y="256.5" x="1869.5">Energy intensive</text></g></g><g id="minder_node7" opacity="1"><g id="node_expander6" style="cursor: pointer;"><path id="kity_path_78" fill="white" stroke="gray" d="M2031.5,282.5A6,6,0,1,1,2019.5,282.5A6,6,0,1,1,2031.5,282.5"></path><path id="kity_path_79" fill="none" stroke="gray" d="M2021,282.5L2030,282.5"></path></g><path id="node_outline7" fill="black" stroke="none" d="M2031.5,265.5h108v34h-108z"></path><g id="node_text7" fill="#999"><text id="kity_text_75" text-rendering="inherit" font-size="14" dy=".8em" y="275.5" x="2041.5">Proof of work</text></g></g><g id="minder_node8" opacity="1"><g id="node_expander7" style="cursor: pointer;" display="none"><path id="kity_path_86" fill="white" stroke="gray" d="M2214.5,357.5A6,6,0,1,1,2202.5,357.5A6,6,0,1,1,2214.5,357.5"></path><path id="kity_path_87" fill="none" stroke="gray"></path></g><path id="node_outline8" fill="black" stroke="none" d="M2214.5,340.5h85v34h-85z"></path><g id="node_text8" fill="#999"><text id="kity_text_83" text-rendering="inherit" font-size="14" dy=".8em" y="350.5" x="2224.5">Ethereum</text></g></g><g id="minder_node9" opacity="1"><g id="node_expander8" style="cursor: pointer;" display="none"><path id="kity_path_95" fill="white" stroke="gray" d="M2046.5,187.5A6,6,0,1,1,2034.5,187.5A6,6,0,1,1,2046.5,187.5"></path><path id="kity_path_96" fill="none" stroke="gray"></path></g><path id="node_outline9" fill="black" stroke="none" d="M2046.5,170.5h234v34h-234z"></path><g id="node_text9" fill="#999"><text id="kity_text_92" text-rendering="inherit" font-size="14" dy=".8em" y="180.5" x="2056.5">Bias from people against crypto</text></g></g><g id="minder_node10" opacity="1"><g id="node_expander9" style="cursor: pointer;"><path id="kity_path_103" fill="white" stroke="gray" d="M1638.5,612.5A6,6,0,1,1,1626.5,612.5A6,6,0,1,1,1638.5,612.5"></path><path id="kity_path_104" fill="none" stroke="gray" d="M1628,612.5L1637,612.5"></path></g><path id="node_outline10" fill="black" stroke="none" d="M1638.5,595.5h154v34h-154z"></path><g id="node_text10" fill="#999"><text id="kity_text_100" text-rendering="inherit" font-size="14" dy=".8em" y="605.5" x="1648.5">Digital marketplace</text></g></g><g id="minder_node14" opacity="1"><g id="node_expander13" style="cursor: pointer;"><path id="kity_path_137" fill="white" stroke="gray" d="M1834.5,951.5A6,6,0,1,1,1822.5,951.5A6,6,0,1,1,1834.5,951.5"></path><path id="kity_path_138" fill="none" stroke="gray" d="M1824,951.5L1833,951.5"></path></g><path id="node_outline14" fill="black" stroke="none" d="M1834.5,934.5h152v34h-152z"></path><g id="node_text14" fill="#999"><text id="kity_text_134" text-rendering="inherit" font-size="14" dy=".8em" y="944.5" x="1844.5">Acces for everyone</text></g></g><g id="minder_node16" opacity="1"><g id="node_expander15" style="cursor: pointer;"><path id="kity_path_153" fill="white" stroke="gray" d="M964.5,658.5A6,6,0,1,1,952.5,658.5A6,6,0,1,1,964.5,658.5"></path><path id="kity_path_154" fill="none" stroke="gray" d="M954,658.5L963,658.5"></path></g><path id="node_outline16" fill="black" stroke="none" d="M964.5,641.5h263v34h-263z"></path><g id="node_text16" fill="#999"><text id="kity_text_150" text-rendering="inherit" font-size="14" dy=".8em" y="651.5" x="974.5">Encourages digital artist to make art</text></g></g><g id="minder_node17" opacity="1"><g id="node_expander16" style="cursor: pointer;" display="none"><path id="kity_path_161" fill="white" stroke="gray" d="M1850.5,386.5A6,6,0,1,1,1838.5,386.5A6,6,0,1,1,1850.5,386.5"></path><path id="kity_path_162" fill="none" stroke="gray"></path></g><path id="node_outline17" fill="black" stroke="none" d="M1850.5,369.5h188v34h-188z"></path><g id="node_text17" fill="#999"><text id="kity_text_158" text-rendering="inherit" font-size="14" dy=".8em" y="379.5" x="1860.5">Decentralised exchange</text></g></g><g id="minder_node21" opacity="1"><g id="node_expander20" style="cursor: pointer;"><path id="kity_path_200" fill="white" stroke="gray" d="M1383.5,676.5A6,6,0,1,1,1371.5,676.5A6,6,0,1,1,1383.5,676.5"></path><path id="kity_path_201" fill="none" stroke="gray" d="M1373,676.5L1382,676.5"></path></g><path id="node_outline21" fill="black" stroke="none" d="M1265.5,659.5h106v34h-106z"></path><g id="node_text21" fill="#999"><text id="kity_text_197" text-rendering="inherit" font-size="14" dy=".8em" y="669.5" x="1275.5">Collectables</text></g></g><g id="minder_node11" opacity="1"><g id="node_expander10" style="cursor: pointer;" display="none"><path id="kity_path_111" fill="white" stroke="gray" d="M1983.5,534.5A6,6,0,1,1,1971.5,534.5A6,6,0,1,1,1983.5,534.5"></path><path id="kity_path_112" fill="none" stroke="gray"></path></g><path id="node_outline11" fill="black" stroke="none" d="M1983.5,517.5h256v34h-256z"></path><g id="node_text11" fill="#999"><text id="kity_text_108" text-rendering="inherit" font-size="14" dy=".8em" y="527.5" x="1993.5">High end contemporary art market</text></g></g><g id="minder_node12" opacity="1"><g id="node_expander11" style="cursor: pointer;"><path id="kity_path_119" fill="white" stroke="gray" d="M2028.5,669.5A6,6,0,1,1,2016.5,669.5A6,6,0,1,1,2028.5,669.5"></path><path id="kity_path_120" fill="none" stroke="gray" d="M2018,669.5L2027,669.5"></path></g><path id="node_outline12" fill="black" stroke="none" d="M2028.5,652.5h225v34h-225z"></path><g id="node_text12" fill="#999"><text id="kity_text_116" text-rendering="inherit" font-size="14" dy=".8em" y="662.5" x="2038.5">Huge influence on the market&#xa0;</text></g></g><g id="minder_node13" opacity="1"><g id="node_expander12" style="cursor: pointer;" display="none"><path id="kity_path_129" fill="white" stroke="gray" d="M1935.5,799.5A6,6,0,1,1,1923.5,799.5A6,6,0,1,1,1935.5,799.5"></path><path id="kity_path_130" fill="none" stroke="gray"></path></g><path id="node_outline13" fill="black" stroke="none" d="M1935.5,782.5h315v34h-315z"></path><g id="node_text13" fill="#999"><text id="kity_text_126" text-rendering="inherit" font-size="14" dy=".8em" y="792.5" x="1945.5">How does it impact the physical art market?</text></g></g><g id="minder_node15" opacity="1"><g id="node_expander14" style="cursor: pointer;" display="none"><path id="kity_path_145" fill="white" stroke="gray" d="M2026.5,877.5A6,6,0,1,1,2014.5,877.5A6,6,0,1,1,2026.5,877.5"></path><path id="kity_path_146" fill="none" stroke="gray"></path></g><path id="node_outline15" fill="black" stroke="none" d="M2026.5,860.5h325v34h-325z"></path><g id="node_text15" fill="#999"><text id="kity_text_142" text-rendering="inherit" font-size="14" dy=".8em" y="870.5" x="2036.5">Art that is free and valuable at the same time</text></g></g><g id="minder_node20" opacity="1"><g id="node_expander19" style="cursor: pointer;" display="none"><path id="kity_path_192" fill="white" stroke="gray" d="M2026.5,951.5A6,6,0,1,1,2014.5,951.5A6,6,0,1,1,2026.5,951.5"></path><path id="kity_path_193" fill="none" stroke="gray"></path></g><path id="node_outline20" fill="black" stroke="none" d="M2026.5,934.5h92v34h-92z"></path><g id="node_text20" fill="#999"><text id="kity_text_189" text-rendering="inherit" font-size="14" dy=".8em" y="944.5" x="2036.5">Ownership</text></g></g><g id="minder_node22" opacity="1"><g id="node_expander21" style="cursor: pointer;"><path id="kity_path_217" fill="white" stroke="gray" d="M1210.5,700.5A6,6,0,1,1,1198.5,700.5A6,6,0,1,1,1210.5,700.5"></path><path id="kity_path_218" fill="none" stroke="gray" d="M1200,700.5L1209,700.5"></path></g><path id="node_outline22" fill="black" stroke="none" d="M1089.5,683.5h109v34h-109z"></path><g id="node_text22" fill="#999"><text id="kity_text_214" text-rendering="inherit" font-size="14" dy=".8em" y="693.5" x="1099.5">Gamifiaction</text></g></g><g id="minder_node23" opacity="1"><g id="node_expander22" style="cursor: pointer;" display="none"><path id="kity_path_225" fill="white" stroke="gray" d="M1019.5,726.5A6,6,0,1,1,1007.5,726.5A6,6,0,1,1,1019.5,726.5"></path><path id="kity_path_226" fill="none" stroke="gray"></path></g><path id="node_outline23" fill="black" stroke="none" d="M881.5,709.5h126v34h-126z"></path><g id="node_text23" fill="#999"><text id="kity_text_222" text-rendering="inherit" font-size="14" dy=".8em" y="719.5" x="891.5">Pokemon cards</text></g></g><g id="minder_node24" opacity="1"><g id="node_expander23" style="cursor: pointer;"><path id="kity_path_233" fill="white" stroke="gray" d="M1475.5,859.5A6,6,0,1,1,1463.5,859.5A6,6,0,1,1,1475.5,859.5"></path><path id="kity_path_234" fill="none" stroke="gray" d="M1465,859.5L1474,859.5"></path></g><path id="node_outline24" fill="black" stroke="none" d="M1310.5,842.5h153v34h-153z"></path><g id="node_text24" fill="#999"><text id="kity_text_230" text-rendering="inherit" font-size="14" dy=".8em" y="852.5" x="1320.5">What are the flaws?</text></g></g><g id="minder_node25" opacity="1"><g id="node_expander24" style="cursor: pointer;"><path id="kity_path_241" fill="white" stroke="gray" d="M1281.5,916.5A6,6,0,1,1,1269.5,916.5A6,6,0,1,1,1281.5,916.5"></path><path id="kity_path_242" fill="none" stroke="gray" d="M1271,916.5L1280,916.5"></path></g><path id="node_outline25" fill="black" stroke="none" d="M1051.5,899.5h218v34h-218z"></path><g id="node_text25" fill="#999"><text id="kity_text_238" text-rendering="inherit" font-size="14" dy=".8em" y="909.5" x="1061.5">High supply and low demand</text></g></g><g id="minder_node27" opacity="1"><g id="node_expander26" style="cursor: pointer;" display="none"><path id="kity_path_257" fill="white" stroke="gray" d="M1974.5,1064.5A6,6,0,1,1,1962.5,1064.5A6,6,0,1,1,1974.5,1064.5"></path><path id="kity_path_258" fill="none" stroke="gray"></path></g><path id="node_outline27" fill="black" stroke="none" d="M1601.5,1047.5h361v34h-361z"></path><g id="node_text27" fill="#999"><text id="kity_text_254" text-rendering="inherit" font-size="14" dy=".8em" y="1057.5" x="1611.5">Can usually only be experienced inside webrowser</text></g></g><g id="minder_node28" opacity="1"><g id="node_expander27" style="cursor: pointer;" display="none"><path id="kity_path_265" fill="white" stroke="gray" d="M579.5,1069.5A6,6,0,1,1,567.5,1069.5A6,6,0,1,1,579.5,1069.5"></path><path id="kity_path_266" fill="none" stroke="gray"></path></g><path id="node_outline28" fill="black" stroke="none" d="M20.5,1052.5h547v34h-547z"></path><g id="node_text28" fill="#999"><text id="kity_text_262" text-rendering="inherit" font-size="14" dy=".8em" y="1062.5" x="30.5">They buy it because of the value instead of feeling a connection with the work</text></g></g><g id="minder_node26" opacity="1"><g id="node_expander25" style="cursor: pointer;"><path id="kity_path_249" fill="white" stroke="gray" d="M1003.5,987.5A6,6,0,1,1,991.5,987.5A6,6,0,1,1,1003.5,987.5"></path><path id="kity_path_250" fill="none" stroke="gray" d="M993,987.5L1002,987.5"></path></g><path id="node_outline26" fill="black" stroke="none" d="M634.5,970.5h357v34h-357z"></path><g id="node_text26" fill="#999"><text id="kity_text_246" text-rendering="inherit" font-size="14" dy=".8em" y="980.5" x="644.5">People think that it is an easy way to make money</text></g></g><g id="minder_node29" opacity="1"><g id="node_expander28" style="cursor: pointer;" display="none"><path id="kity_path_275" fill="white" stroke="gray" d="M1171.5,824.5A6,6,0,1,1,1159.5,824.5A6,6,0,1,1,1171.5,824.5"></path><path id="kity_path_276" fill="none" stroke="gray"></path></g><path id="node_outline29" fill="black" stroke="none" d="M622.5,807.5h537v34h-537z"></path><g id="node_text29" fill="#999"><text id="kity_text_272" text-rendering="inherit" font-size="14" dy=".8em" y="817.5" x="632.5">People think that this could be the future as it has a broader target audience</text></g></g><g id="minder_node30" opacity="1"><g id="node_expander29" style="cursor: pointer;" display="none"><path id="kity_path_283" fill="white" stroke="gray" d="M1809.5,465.5A6,6,0,1,1,1797.5,465.5A6,6,0,1,1,1809.5,465.5"></path><path id="kity_path_284" fill="none" stroke="gray"></path></g><path id="node_outline30" fill="black" stroke="none" d="M1809.5,448.5h177v34h-177z"></path><g id="node_text30" fill="#999"><text id="kity_text_280" text-rendering="inherit" font-size="14" dy=".8em" y="458.5" x="1819.5">highly fluctuating value</text></g></g><g id="minder_node31" opacity="1"><g id="node_expander30" style="cursor: pointer;" display="none"><path id="kity_path_291" fill="white" stroke="gray" d="M2318.5,531.5A6,6,0,1,1,2306.5,531.5A6,6,0,1,1,2318.5,531.5"></path><path id="kity_path_292" fill="none" stroke="gray"></path></g><path id="node_outline31" fill="black" stroke="none" d="M2318.5,514.5h366v34h-366z"></path><g id="node_text31" fill="#999"><text id="kity_text_288" text-rendering="inherit" font-size="14" dy=".8em" y="524.5" x="2328.5">The most popular marketplaces are using Ethereum</text></g></g><g id="minder_node32"><g id="node_expander31" style="cursor: pointer;" display="none"><path id="kity_path_299" fill="white" stroke="gray" d="M2293.5,706.5A6,6,0,1,1,2281.5,706.5A6,6,0,1,1,2293.5,706.5"></path><path id="kity_path_300" fill="none" stroke="gray"></path></g><path id="node_outline32" fill="black" stroke="none" d="M2293.5,689.5h340v34h-340z"></path><g id="node_text32" fill="#999"><text id="kity_text_296" text-rendering="inherit" font-size="14" dy=".8em" y="699.5" x="2303.5">They can controll wich artists get in the spotlight</text></g></g><g id="minder_node33" opacity="1"><g id="node_expander32" style="cursor: pointer;"><path id="kity_path_307" fill="white" stroke="gray" d="M1292.5,450.5A6,6,0,1,1,1280.5,450.5A6,6,0,1,1,1292.5,450.5"></path><path id="kity_path_308" fill="none" stroke="gray" d="M1282,450.5L1291,450.5"></path></g><path id="node_outline33" fill="black" stroke="none" d="M934.5,433.5h346v34h-346z"></path><g id="node_text33" fill="#999"><text id="kity_text_304" text-rendering="inherit" font-size="14" dy=".8em" y="443.5" x="944.5">Could be more than just a medium of exchange</text></g></g><g id="minder_node18" opacity="1"><g id="node_expander17" style="cursor: pointer;"><path id="kity_path_172" fill="white" stroke="gray" d="M638.5,635.5A6,6,0,1,1,626.5,635.5A6,6,0,1,1,638.5,635.5"></path><path id="kity_path_173" fill="none" stroke="gray" d="M628,635.5L637,635.5"></path></g><path id="node_outline18" fill="black" stroke="none" d="M638.5,618.5h243v34h-243z"></path><g id="node_text18" fill="#999"><text id="kity_text_169" text-rendering="inherit" font-size="14" dy=".8em" y="628.5" x="648.5">Opportunity&#xa0;for new art mediums</text></g></g><g id="minder_node34"><g id="node_expander33" style="cursor: pointer;" display="none"><path id="kity_path_319" fill="white" stroke="gray" d="M906.5,450.5A6,6,0,1,1,894.5,450.5A6,6,0,1,1,906.5,450.5"></path><path id="kity_path_320" fill="none" stroke="gray"></path></g><path id="node_outline34" fill="black" stroke="none" d="M752.5,433.5h142v34h-142z"></path><g id="node_text34" fill="#999"><text id="kity_text_316" text-rendering="inherit" font-size="14" dy=".8em" y="443.5" x="762.5">https://terra0.org/</text></g></g><g id="minder_node36"><g id="node_expander35" style="cursor: pointer;" display="none"><path id="kity_path_335" fill="white" stroke="gray" d="M2026.5,1025.5A6,6,0,1,1,2014.5,1025.5A6,6,0,1,1,2026.5,1025.5"></path><path id="kity_path_336" fill="none" stroke="gray"></path></g><path id="node_outline36" fill="black" stroke="none" d="M2026.5,1008.5h229v34h-229z"></path><g id="node_text36" fill="#999"><text id="kity_text_332" text-rendering="inherit" font-size="14" dy=".8em" y="1018.5" x="2036.5">Opportunity for minority groups</text></g></g><g id="minder_node37" opacity="1"><g id="node_expander36" style="cursor: pointer;" display="none"><path id="kity_path_343" fill="white" stroke="gray" d="M1430.5,1031.5A6,6,0,1,1,1418.5,1031.5A6,6,0,1,1,1430.5,1031.5"></path><path id="kity_path_344" fill="none" stroke="gray"></path></g><path id="node_outline37" fill="black" stroke="none" d="M1166.5,1014.5h252v34h-252z"></path><g id="node_text37" fill="#999"><text id="kity_text_340" text-rendering="inherit" font-size="14" dy=".8em" y="1024.5" x="1176.5">There is a lack of deeper discourse</text></g></g><g id="minder_node19" opacity="1"><g id="node_expander18" style="cursor: pointer;" display="none"><path id="kity_path_183" fill="white" stroke="gray" d="M280.5,614.5A6,6,0,1,1,268.5,614.5A6,6,0,1,1,280.5,614.5"></path><path id="kity_path_184" fill="none" stroke="gray"></path></g><path id="node_outline19" fill="black" stroke="none" d="M280.5,597.5h313v34h-313z"></path><g id="node_text19" fill="#999"><text id="kity_text_180" text-rendering="inherit" font-size="14" dy=".8em" y="607.5" x="290.5">How could the future of crypto art look like?</text></g></g><g id="minder_node35" opacity="1"><g id="node_expander34" style="cursor: pointer;" display="none"><path id="kity_path_327" fill="white" stroke="gray" d="M320.5,445.5A6,6,0,1,1,308.5,445.5A6,6,0,1,1,320.5,445.5"></path><path id="kity_path_328" fill="none" stroke="gray"></path></g><path id="node_outline35" fill="black" stroke="none" d="M320.5,428.5h166v34h-166z"></path><g id="node_text35" fill="#999"><text id="kity_text_324" text-rendering="inherit" font-size="14" dy=".8em" y="438.5" x="330.5">Autonomous artworks</text></g></g><g id="minder_node38" opacity="1"><g id="node_expander37" style="cursor: pointer;" display="none"><path id="kity_path_353" fill="white" stroke="gray" d="M405.5,740.5A6,6,0,1,1,393.5,740.5A6,6,0,1,1,405.5,740.5"></path><path id="kity_path_354" fill="none" stroke="gray"></path></g><path id="node_outline38" fill="black" stroke="none" d="M405.5,723.5h109v34h-109z"></path><g id="node_text38" fill="#999"><text id="kity_text_350" text-rendering="inherit" font-size="14" dy=".8em" y="733.5" x="415.5">Performance</text></g></g><g id="kity_g_12" display="none"><path id="kity_path_13" fill="none" stroke="yellow" d="M881.5,709.5h126v34h-126z" stroke-width="2"></path></g></g></g></svg>